<?xml version="1.0" encoding="utf-8"?>
<!-- Generator: Adobe Illustrator 27.0.0, SVG Export Plug-In . SVG Version: 6.00 Build 0)  -->
<svg version="1.1" id="Layer_1" xmlns="http://www.w3.org/2000/svg" xmlns:xlink="http://www.w3.org/1999/xlink" x="0px" y="0px"
	 viewBox="0 0 1018.5 258.4" style="enable-background:new 0 0 1018.5 258.4;" xml:space="preserve">
<style type="text/css">
	.st0{fill:#F93E3E;}
</style>
<path class="st0" d="M112.3,167l21.5,22.3c-12.5,13.4-37.6,22.3-58.5,22.3C34,211.6,0,180.1,0,135.8s32.3-75,73.3-75
	c44.6,0,70.5,33.7,70.5,87H35.1c4.2,19.8,19.2,33.7,39.9,33.7C88.4,181.5,104.2,175.3,112.3,167L112.3,167z M35.4,121.8h75.8
	c-3.9-18.1-16.2-30.9-36.5-30.9C55.8,90.9,40.4,102.9,35.4,121.8L35.4,121.8z"/>
<path class="st0" d="M127.4,64.1h36l41.8,104.8l41-104.8h36.2l-61,144.1h-32.1L127.4,64.1z"/>
<path class="st0" d="M379.8,167l21.5,22.3c-12.5,13.4-37.6,22.3-58.5,22.3c-41.2,0-75.3-31.5-75.3-75.8s32.3-75,73.3-75
	c44.6,0,70.5,33.7,70.5,87H302.6c4.2,19.8,19.2,33.7,39.9,33.7C355.9,181.5,371.8,175.3,379.8,167L379.8,167z M302.9,121.8h75.8
	c-3.9-18.1-16.2-30.9-36.5-30.9C323.3,90.9,307.9,102.8,302.9,121.8L302.9,121.8z"/>
<path class="st0" d="M553.3,116.5v91.7h-32.9v-85c0-19.5-12.5-33.4-30.4-33.4s-32.6,12-34.8,27.3v91.2h-34V64.1h34v19.2
	c8.9-13.4,25.6-22.6,44.6-22.6C531.2,60.8,553.3,83.9,553.3,116.5L553.3,116.5z"/>
<path class="st0" d="M653.8,200.1c-8.1,7-19.8,11.4-30.7,11.4c-24,0-40.7-17.3-40.7-41.5V92.3h-20.9V64.1h20.9V24.5h33.2v39.6h32.6
	v28.2h-32.6v73.6c0,9.8,6.1,16.7,14.2,16.7c5.8,0,11.2-2.2,14.2-5.3L653.8,200.1z"/>
<path class="st0" d="M693.5,64.1h40.7l-30.1,144.1h-40.7L693.5,64.1z M699.6,24c0-13.1,11.7-24,24.2-24c11.7,0,19.8,9.2,19.8,20.4
	c0,12.5-11.4,24-23.4,24S699.6,35.1,699.6,24z"/>
<path class="st0" d="M819.2,58l-1.4,6.1H849L842.3,97h-31.2l-23.4,111.2h-39L771.8,97H752l7-32.9h19.5l3.1-14.2
	c5.6-25.9,25.6-42.4,48.8-42.4c13.9,0,25.9,6.1,32.9,13.7l-12.5,22.6c-2.8-2.8-7-3.6-10.3-3.6C829,40.1,821.2,49.3,819.2,58
	L819.2,58z"/>
<path class="st0" d="M833.4,248.6l12-26.2c5.8,3.6,12.3,5.6,17,5.6c7.5,0,16.2-3.9,20.1-9.5l7.8-8.9L861,64.1h41.2l16.5,101.2
	l57.4-101.2h42.4l-90.9,152.8c-16.7,28.4-37.3,41.5-59.1,41.5C856.3,258.4,842.3,254.2,833.4,248.6L833.4,248.6z"/>
</svg>
